<svg width="800" height="160" viewBox="0 0 800 160" xmlns="http://www.w3.org/2000/svg" class="scene">
  <style>
    .scene { color: hsl(0 0% 20%); }
    @media (prefers-color-scheme: dark) {
      .scene { color: hsl(0 0% 98%); }
    }
    .cloud { opacity: 0.18; }
    .cloud-mid { opacity: 0.28; }
    .cloud-near { opacity: 0.45; }
  </style>

  <!-- far small clouds -->
  <g class="cloud" transform="translate(30, 10) scale(1.4)">
    <path d="M6.5 19C4.01472 19 2 16.9853 2 14.5C2 12.1564 3.79151 10.2313 6.07974 10.0194C6.54781 7.17213 9.02024 5 12 5C14.9798 5 17.4522 7.17213 17.9203 10.0194C20.2085 10.2313 22 12.1564 22 14.5C22 16.9853 19.9853 19 17.5 19C13.1102 19 10.3433 19 6.5 19Z" fill="currentColor"/>
  </g>

  <g class="cloud" transform="translate(310, 5) scale(1.1)">
    <path d="M9.5 19C5.35786 19 2 15.6421 2 11.5C2 7.35786 5.35786 4 9.5 4C12.3827 4 14.8855 5.62634 16.141 8.01153C16.2597 8.00388 16.3794 8 16.5 8C19.5376 8 22 10.4624 22 13.5C22 16.5376 19.5376 19 16.5 19C13.9485 19 12.1224 19 9.5 19Z" fill="currentColor"/>
  </g>

  <g class="cloud" transform="translate(590, 18) scale(1.2)">
    <path d="M6.5 19C4.01472 19 2 16.9853 2 14.5C2 12.1564 3.79151 10.2313 6.07974 10.0194C6.54781 7.17213 9.02024 5 12 5C14.9798 5 17.4522 7.17213 17.9203 10.0194C20.2085 10.2313 22 12.1564 22 14.5C22 16.9853 19.9853 19 17.5 19C13.1102 19 10.3433 19 6.5 19Z" fill="currentColor"/>
  </g>

  <!-- mid clouds -->
  <g class="cloud-mid" transform="translate(140, 30) scale(2)">
    <path d="M9.5 19C5.35786 19 2 15.6421 2 11.5C2 7.35786 5.35786 4 9.5 4C12.3827 4 14.8855 5.62634 16.141 8.01153C16.2597 8.00388 16.3794 8 16.5 8C19.5376 8 22 10.4624 22 13.5C22 16.5376 19.5376 19 16.5 19C13.9485 19 12.1224 19 9.5 19Z" fill="currentColor"/>
  </g>

  <g class="cloud-mid" transform="translate(460, 22) scale(1.8)">
    <path d="M6.5 19C4.01472 19 2 16.9853 2 14.5C2 12.1564 3.79151 10.2313 6.07974 10.0194C6.54781 7.17213 9.02024 5 12 5C14.9798 5 17.4522 7.17213 17.9203 10.0194C20.2085 10.2313 22 12.1564 22 14.5C22 16.9853 19.9853 19 17.5 19C13.1102 19 10.3433 19 6.5 19Z" fill="currentColor"/>
  </g>

  <g class="cloud-mid" transform="translate(730, 50) scale(1.4)">
    <path d="M6.5 19C4.01472 19 2 16.9853 2 14.5C2 12.1564 3.79151 10.2313 6.07974 10.0194C6.54781 7.17213 9.02024 5 12 5C14.9798 5 17.4522 7.17213 17.9203 10.0194C20.2085 10.2313 22 12.1564 22 14.5C22 16.9853 19.9853 19 17.5 19C13.1102 19 10.3433 19 6.5 19Z" fill="currentColor"/>
  </g>

  <!-- near large clouds -->
  <g class="cloud-near" transform="translate(10, 55) scale(3.2)">
    <path d="M6.5 19C4.01472 19 2 16.9853 2 14.5C2 12.1564 3.79151 10.2313 6.07974 10.0194C6.54781 7.17213 9.02024 5 12 5C14.9798 5 17.4522 7.17213 17.9203 10.0194C20.2085 10.2313 22 12.1564 22 14.5C22 16.9853 19.9853 19 17.5 19C13.1102 19 10.3433 19 6.5 19Z" fill="currentColor"/>
  </g>

  <g class="cloud-near" transform="translate(330, 68) scale(2.8)">
    <path d="M9.5 19C5.35786 19 2 15.6421 2 11.5C2 7.35786 5.35786 4 9.5 4C12.3827 4 14.8855 5.62634 16.141 8.01153C16.2597 8.00388 16.3794 8 16.5 8C19.5376 8 22 10.4624 22 13.5C22 16.5376 19.5376 19 16.5 19C13.9485 19 12.1224 19 9.5 19Z" fill="currentColor"/>
  </g>

  <g class="cloud-near" transform="translate(620, 60) scale(2.5)">
    <path d="M6.5 19C4.01472 19 2 16.9853 2 14.5C2 12.1564 3.79151 10.2313 6.07974 10.0194C6.54781 7.17213 9.02024 5 12 5C14.9798 5 17.4522 7.17213 17.9203 10.0194C20.2085 10.2313 22 12.1564 22 14.5C22 16.9853 19.9853 19 17.5 19C13.1102 19 10.3433 19 6.5 19Z" fill="currentColor"/>
  </g>
</svg>
