<svg width="424" height="183" viewBox="0 0 424 183" fill="none" xmlns="http://www.w3.org/2000/svg" class="icon">
<style>
    .icon {
      color: hsl(0 0% 20%);
    }
    @media (prefers-color-scheme: dark) {
      .icon {
        color: hsl(0 0% 98%);
      }
    }
</style>
<path d="M126.375 66.9375H115.406V0H126.375V27.9844H143.391V0H154.359V66.9375H143.391V37.9219H126.375V66.9375ZM172.359 14.6719H162V6.09375H172.359V14.6719ZM172.359 66.9375H162V21.3281H172.359V66.9375ZM185.438 78.1406H180.234L184.406 66.9375H179.906V55.875H190.922V65.9062L185.438 78.1406ZM229.641 66.9375H218.672V0H229.641V66.9375ZM243.844 22.2656H238.359L242.812 11.0625H237.562V0H249.703V10.0312L243.844 22.2656ZM266.812 66.9375H256.5V21.3281H266.812V26.2031H268.641C269.734 24.3594 270.922 22.9688 272.203 22.0312C273.516 21.0625 275.453 20.5781 278.016 20.5781C280.453 20.5781 282.469 21.0781 284.062 22.0781C285.688 23.0469 286.859 24.6719 287.578 26.9531H289.266C290.391 25.1406 291.703 23.625 293.203 22.4062C294.734 21.1875 296.766 20.5781 299.297 20.5781C302.672 20.5781 305.25 21.5625 307.031 23.5312C308.844 25.4688 309.75 28.75 309.75 33.375V66.9375H299.484V32.3906C299.484 29.9844 298.016 28.7812 295.078 28.7812C293.703 28.7812 292.406 29.1406 291.188 29.8594C289.969 30.5469 289.062 31.3594 288.469 32.2969V66.9375H278.203V32.3906C278.172 29.9844 276.688 28.7812 273.75 28.7812C272.312 28.7812 270.938 29.0781 269.625 29.6719C268.312 30.2656 267.375 31.0625 266.812 32.0625V66.9375ZM19.9688 182.688C13.0938 182.688 8.17188 181.484 5.20312 179.078C2.23438 176.641 0.625 172.594 0.375 166.938C0.125 163.688 0.203125 160.359 0.609375 156.953H11.1094C10.9219 159.109 10.8125 161.219 10.7812 163.281C10.7812 165.344 10.8906 167.266 11.1094 169.047C11.2656 170.484 12.0156 171.594 13.3594 172.375C14.7344 173.125 16.9219 173.5 19.9219 173.5C22.8906 173.5 25.0156 173.125 26.2969 172.375C27.6094 171.594 28.3594 170.484 28.5469 169.047C28.7656 167.422 28.8594 165.891 28.8281 164.453C28.7969 162.984 28.7031 161.438 28.5469 159.812C28.3906 158.469 27.8906 157.281 27.0469 156.25C26.2031 155.219 24.5312 154.531 22.0312 154.188L14.25 152.547C10.5625 151.828 7.71875 150.797 5.71875 149.453C3.75 148.109 2.35938 146.422 1.54688 144.391C0.734375 142.359 0.265625 139.969 0.140625 137.219C0.078125 135.906 0.046875 134.656 0.046875 133.469C0.078125 132.281 0.125 131.094 0.1875 129.906C0.375 124.312 1.95312 120.297 4.92188 117.859C7.89062 115.422 12.8906 114.203 19.9219 114.203C26.5469 114.203 31.3438 115.422 34.3125 117.859C37.2812 120.297 38.875 124.312 39.0938 129.906C39.1875 131.156 39.2031 132.703 39.1406 134.547C39.1094 136.359 39.0469 138.094 38.9531 139.75H28.3594C28.6406 135.656 28.6719 131.672 28.4531 127.797C28.2031 124.859 25.3438 123.391 19.875 123.391C16.9062 123.391 14.7656 123.766 13.4531 124.516C12.1406 125.266 11.3906 126.359 11.2031 127.797C10.9844 129.359 10.875 130.938 10.875 132.531C10.9062 134.094 11.0156 135.656 11.2031 137.219C11.3594 138.594 11.8594 139.781 12.7031 140.781C13.5469 141.75 15.2969 142.406 17.9531 142.75L25.125 144.109C28.9375 144.797 31.8594 145.844 33.8906 147.25C35.9219 148.656 37.3438 150.406 38.1562 152.5C39 154.562 39.4844 157 39.6094 159.812C39.7031 161.062 39.7344 162.266 39.7031 163.422C39.6719 164.578 39.6094 165.75 39.5156 166.938C39.2656 172.594 37.6406 176.641 34.6406 179.078C31.6719 181.484 26.7812 182.688 19.9688 182.688ZM55.5469 181.938H45.2344V121.094H55.5469V141.203H57.4688C58.5938 139.359 59.8281 137.969 61.1719 137.031C62.5156 136.062 64.4688 135.578 67.0312 135.578C70.5 135.578 73.1719 136.562 75.0469 138.531C76.9219 140.469 77.8594 143.75 77.8594 148.375V181.938H67.5938V147.391C67.5938 144.984 66.0156 143.781 62.8594 143.781C61.3281 143.781 59.875 144.078 58.5 144.672C57.1562 145.266 56.1719 146.062 55.5469 147.062V181.938ZM95.4375 182.641C91.9375 182.641 89.1875 181.656 87.1875 179.688C85.1875 177.719 84.1875 174.438 84.1875 169.844V136.328H94.4531V170.828C94.4531 173.203 96.0469 174.391 99.2344 174.391C100.766 174.391 102.25 174.094 103.688 173.5C105.125 172.906 106.141 172.125 106.734 171.156V136.328H117V181.938H106.734V177.016H105.188C103.969 179.016 102.578 180.453 101.016 181.328C99.4844 182.203 97.625 182.641 95.4375 182.641ZM134.391 182.641C130.891 182.641 128.219 181.656 126.375 179.688C124.531 177.719 123.516 174.438 123.328 169.844C123.234 168.625 123.172 167.062 123.141 165.156C123.109 163.25 123.094 161.234 123.094 159.109C123.094 156.984 123.109 154.969 123.141 153.062C123.172 151.156 123.234 149.594 123.328 148.375C123.516 143.75 124.547 140.469 126.422 138.531C128.328 136.562 131.047 135.578 134.578 135.578C137.203 135.578 139.188 136.062 140.531 137.031C141.906 137.969 143.156 139.359 144.281 141.203H145.922V121.094H156.188V181.938H145.922V177.016H144.281C143.125 178.828 141.844 180.219 140.438 181.188C139.031 182.156 137.016 182.641 134.391 182.641ZM138.375 174.391C140 174.391 141.5 174.094 142.875 173.5C144.281 172.906 145.297 172.125 145.922 171.156V147.062C145.297 146.062 144.281 145.266 142.875 144.672C141.5 144.078 140.016 143.781 138.422 143.781C135.328 143.781 133.719 144.984 133.594 147.391C133.469 149.609 133.375 152.172 133.312 155.078C133.281 157.953 133.281 160.797 133.312 163.609C133.375 166.422 133.469 168.828 133.594 170.828C133.688 172.047 134.094 172.953 134.812 173.547C135.562 174.109 136.75 174.391 138.375 174.391ZM173.297 181.938H162.984V121.094H173.297V141.203H175.219C176.344 139.359 177.578 137.969 178.922 137.031C180.266 136.062 182.219 135.578 184.781 135.578C188.25 135.578 190.922 136.562 192.797 138.531C194.672 140.469 195.609 143.75 195.609 148.375V181.938H185.344V147.391C185.344 144.984 183.766 143.781 180.609 143.781C179.078 143.781 177.625 144.078 176.25 144.672C174.906 145.266 173.922 146.062 173.297 147.062V181.938ZM212.859 182.5C209.047 182.5 206.234 181.688 204.422 180.062C202.609 178.406 201.531 175.578 201.188 171.578C201.156 171.141 201.125 170.594 201.094 169.938C201.094 169.281 201.125 168.719 201.188 168.25C201.438 165.125 202.453 162.672 204.234 160.891C206.047 159.109 209.203 157.484 213.703 156.016C215.328 155.516 216.953 155.094 218.578 154.75C220.203 154.406 221.875 154.062 223.594 153.719V147.812C223.594 146.594 223.203 145.656 222.422 145C221.641 144.312 220.188 143.969 218.062 143.969C216.219 143.969 214.875 144.25 214.031 144.812C213.219 145.344 212.766 146.219 212.672 147.438C212.641 147.781 212.609 148.391 212.578 149.266C212.578 150.109 212.578 150.969 212.578 151.844C212.609 152.688 212.641 153.344 212.672 153.812H202.641C202.609 153.562 202.562 152.859 202.5 151.703C202.469 150.547 202.484 149.562 202.547 148.75C202.734 144.156 204 140.812 206.344 138.719C208.688 136.625 212.688 135.578 218.344 135.578C224.219 135.578 228.266 136.75 230.484 139.094C232.703 141.406 233.797 145.219 233.766 150.531L233.719 181.938H223.5V177.016H222C221.031 178.922 219.875 180.312 218.531 181.188C217.188 182.062 215.297 182.5 212.859 182.5ZM216.797 174.391C218.391 174.391 219.75 174.109 220.875 173.547C222 172.984 222.891 172.266 223.547 171.391V160.984C222.328 161.172 221.109 161.391 219.891 161.641C218.703 161.891 217.469 162.172 216.188 162.484C214.312 163.109 213.047 163.922 212.391 164.922C211.766 165.922 211.406 167.031 211.312 168.25C211.219 169.219 211.234 170.031 211.359 170.688C211.703 173.156 213.516 174.391 216.797 174.391ZM250.828 181.938H240.516V136.328H250.828V141.203H252.609C253.547 139.359 254.609 137.969 255.797 137.031C256.984 136.062 258.672 135.578 260.859 135.578C263.922 135.578 266.266 136.531 267.891 138.438C269.516 140.344 270.328 143.484 270.328 147.859C270.328 149.016 270.266 150.109 270.141 151.141C270.047 152.141 269.922 153.031 269.766 153.812H260.531C260.562 153.188 260.578 152.281 260.578 151.094C260.609 149.906 260.625 149.156 260.625 148.844C260.625 146.906 260.25 145.578 259.5 144.859C258.75 144.141 257.781 143.781 256.594 143.781C255.438 143.781 254.297 144.078 253.172 144.672C252.078 145.266 251.297 146.062 250.828 147.062V181.938ZM291.328 182.641C285.672 182.641 281.656 181.609 279.281 179.547C276.938 177.453 275.656 174 275.438 169.188C275.406 168.344 275.391 167.375 275.391 166.281C275.422 165.156 275.469 164.469 275.531 164.219H284.625C284.562 165.562 284.531 166.781 284.531 167.875C284.562 168.938 284.594 169.766 284.625 170.359C284.688 171.766 285.234 172.766 286.266 173.359C287.328 173.953 289.016 174.25 291.328 174.25C293.859 174.25 295.672 173.953 296.766 173.359C297.859 172.766 298.422 171.766 298.453 170.359C298.484 169.734 298.5 169.375 298.5 169.281C298.531 169.188 298.547 169.094 298.547 169C298.578 168.906 298.578 168.562 298.547 167.969C298.516 167.156 298.188 166.484 297.562 165.953C296.969 165.391 295.75 165 293.906 164.781L287.672 163.281C283.359 162.312 280.234 160.922 278.297 159.109C276.359 157.297 275.328 154.734 275.203 151.422C275.172 150.734 275.203 150.016 275.297 149.266C275.359 144.359 276.594 140.859 279 138.766C281.406 136.641 285.672 135.578 291.797 135.578C297.516 135.578 301.531 136.594 303.844 138.625C306.188 140.656 307.469 144.031 307.688 148.75C307.688 149.562 307.672 150.547 307.641 151.703C307.641 152.859 307.609 153.562 307.547 153.812H298.078C298.141 153.344 298.172 152.688 298.172 151.844C298.203 150.969 298.203 150.109 298.172 149.266C298.172 148.391 298.156 147.781 298.125 147.438C298.062 146.219 297.578 145.344 296.672 144.812C295.766 144.25 294.141 143.969 291.797 143.969C289.422 143.969 287.766 144.25 286.828 144.812C285.922 145.344 285.422 146.219 285.328 147.438C285.297 148.031 285.25 148.453 285.188 148.703C285.156 148.922 285.156 149.484 285.188 150.391C285.25 151.359 285.531 152.188 286.031 152.875C286.531 153.531 287.875 154 290.062 154.281L295.734 155.406C299.891 156.25 302.984 157.578 305.016 159.391C307.078 161.172 308.109 163.828 308.109 167.359C308.109 167.672 308.109 168.016 308.109 168.391C308.109 168.766 308.094 169.125 308.062 169.469C307.938 174.188 306.609 177.562 304.078 179.594C301.578 181.625 297.328 182.641 291.328 182.641ZM324.047 181.938H313.734V121.094H324.047V141.203H325.969C327.094 139.359 328.328 137.969 329.672 137.031C331.016 136.062 332.969 135.578 335.531 135.578C339 135.578 341.672 136.562 343.547 138.531C345.422 140.469 346.359 143.75 346.359 148.375V181.938H336.094V147.391C336.094 144.984 334.516 143.781 331.359 143.781C329.828 143.781 328.375 144.078 327 144.672C325.656 145.266 324.672 146.062 324.047 147.062V181.938ZM363.609 182.5C359.797 182.5 356.984 181.688 355.172 180.062C353.359 178.406 352.281 175.578 351.938 171.578C351.906 171.141 351.875 170.594 351.844 169.938C351.844 169.281 351.875 168.719 351.938 168.25C352.188 165.125 353.203 162.672 354.984 160.891C356.797 159.109 359.953 157.484 364.453 156.016C366.078 155.516 367.703 155.094 369.328 154.75C370.953 154.406 372.625 154.062 374.344 153.719V147.812C374.344 146.594 373.953 145.656 373.172 145C372.391 144.312 370.938 143.969 368.812 143.969C366.969 143.969 365.625 144.25 364.781 144.812C363.969 145.344 363.516 146.219 363.422 147.438C363.391 147.781 363.359 148.391 363.328 149.266C363.328 150.109 363.328 150.969 363.328 151.844C363.359 152.688 363.391 153.344 363.422 153.812H353.391C353.359 153.562 353.312 152.859 353.25 151.703C353.219 150.547 353.234 149.562 353.297 148.75C353.484 144.156 354.75 140.812 357.094 138.719C359.438 136.625 363.438 135.578 369.094 135.578C374.969 135.578 379.016 136.75 381.234 139.094C383.453 141.406 384.547 145.219 384.516 150.531L384.469 181.938H374.25V177.016H372.75C371.781 178.922 370.625 180.312 369.281 181.188C367.938 182.062 366.047 182.5 363.609 182.5ZM367.547 174.391C369.141 174.391 370.5 174.109 371.625 173.547C372.75 172.984 373.641 172.266 374.297 171.391V160.984C373.078 161.172 371.859 161.391 370.641 161.641C369.453 161.891 368.219 162.172 366.938 162.484C365.062 163.109 363.797 163.922 363.141 164.922C362.516 165.922 362.156 167.031 362.062 168.25C361.969 169.219 361.984 170.031 362.109 170.688C362.453 173.156 364.266 174.391 367.547 174.391ZM401.578 181.938H391.266V136.328H401.578V141.203H403.5C404.594 139.359 405.828 137.969 407.203 137.031C408.578 136.062 410.531 135.578 413.062 135.578C416.531 135.578 419.203 136.562 421.078 138.531C422.953 140.469 423.891 143.75 423.891 148.375V181.938H413.625V147.391C413.625 144.984 412.047 143.781 408.891 143.781C407.422 143.781 405.984 144.078 404.578 144.672C403.172 145.266 402.172 146.062 401.578 147.062V181.938Z" fill="currentColor"/>
</svg>
